<svg xmlns="http://www.w3.org/2000/svg" xmlns:xlink="http://www.w3.org/1999/xlink" width="1480" height="1450" viewBox="0 0 1480 1450"><g id="a"><path d="M28.884,1A25.584,25.584,0,0,0,3.3,26.584c0,12.941,21.419,35.847,25.048,39.654a.714.714,0,0,0,1.041,0c3.629-3.778,25.048-26.773,25.048-39.654A25.584,25.584,0,0,0,28.884,1Zm0,34.716A9.132,9.132,0,1,1,35.4,33.073,9.132,9.132,0,0,1,28.884,35.716Z" transform="translate(835.745 823.006)" fill="#ed1c24"/><path d="M28.884,1A25.584,25.584,0,0,0,3.3,26.584c0,12.941,21.419,35.847,25.048,39.654a.714.714,0,0,0,1.041,0c3.629-3.778,25.048-26.773,25.048-39.654A25.584,25.584,0,0,0,28.884,1Zm0,34.716A9.132,9.132,0,1,1,35.4,33.073,9.132,9.132,0,0,1,28.884,35.716Z" transform="translate(1177.745 352.006)" fill="#ed1c24"/><path d="M28.884,1A25.584,25.584,0,0,0,3.3,26.584c0,12.941,21.419,35.847,25.048,39.654a.714.714,0,0,0,1.041,0c3.629-3.778,25.048-26.773,25.048-39.654A25.584,25.584,0,0,0,28.884,1Zm0,34.716A9.132,9.132,0,1,1,35.4,33.073,9.132,9.132,0,0,1,28.884,35.716Z" transform="translate(1228.745 737.006)" fill="#ed1c24"/><path d="M28.884,1A25.584,25.584,0,0,0,3.3,26.584c0,12.941,21.419,35.847,25.048,39.654a.714.714,0,0,0,1.041,0c3.629-3.778,25.048-26.773,25.048-39.654A25.584,25.584,0,0,0,28.884,1Zm0,34.716A9.132,9.132,0,1,1,35.4,33.073,9.132,9.132,0,0,1,28.884,35.716Z" transform="translate(1018.745 605.006)" fill="#ed1c24"/><path d="M28.884,1A25.584,25.584,0,0,0,3.3,26.584c0,12.941,21.419,35.847,25.048,39.654a.714.714,0,0,0,1.041,0c3.629-3.778,25.048-26.773,25.048-39.654A25.584,25.584,0,0,0,28.884,1Zm0,34.716A9.132,9.132,0,1,1,35.4,33.073,9.132,9.132,0,0,1,28.884,35.716Z" transform="translate(507.745 971.006)" fill="#ed1c24"/><path d="M28.884,1A25.584,25.584,0,0,0,3.3,26.584c0,12.941,21.419,35.847,25.048,39.654a.714.714,0,0,0,1.041,0c3.629-3.778,25.048-26.773,25.048-39.654A25.584,25.584,0,0,0,28.884,1Zm0,34.716A9.132,9.132,0,1,1,35.4,33.073,9.132,9.132,0,0,1,28.884,35.716Z" transform="translate(264.745 1073.006)" fill="#ed1c24"/><path d="M28.884,1A25.584,25.584,0,0,0,3.3,26.584c0,12.941,21.419,35.847,25.048,39.654a.714.714,0,0,0,1.041,0c3.629-3.778,25.048-26.773,25.048-39.654A25.584,25.584,0,0,0,28.884,1Zm0,34.716A9.132,9.132,0,1,1,35.4,33.073,9.132,9.132,0,0,1,28.884,35.716Z" transform="translate(934.745 1190.006)" fill="#ed1c24"/><path d="M28.884,1A25.584,25.584,0,0,0,3.3,26.584c0,12.941,21.419,35.847,25.048,39.654a.714.714,0,0,0,1.041,0c3.629-3.778,25.048-26.773,25.048-39.654A25.584,25.584,0,0,0,28.884,1Zm0,34.716A9.132,9.132,0,1,1,35.4,33.073,9.132,9.132,0,0,1,28.884,35.716Z" transform="translate(1029.745 927.006)" fill="#ed1c24"/></g></svg>